<svg width="16" height="17" viewBox="0 0 16 17" fill="none" xmlns="http://www.w3.org/2000/svg">
<g clip-path="url(#clip0_3_917)">
<path d="M14.0267 5.09342H6.98667C6.63111 5.09342 6.29333 5.20009 5.97333 5.41343C5.90222 4.88009 5.68 4.44454 5.30667 4.10676C4.93333 3.76898 4.49778 3.60009 4 3.60009C3.60889 3.60009 3.25333 3.68898 2.93333 3.86676V3.06676C2.93333 2.92454 2.88889 2.80898 2.8 2.72009C2.71111 2.6312 2.59556 2.58676 2.45333 2.58676H0.48C0.337778 2.58676 0.222222 2.6312 0.133333 2.72009C0.0444444 2.80898 0 2.92454 0 3.06676V13.0934C0 13.2356 0.0444444 13.3512 0.133333 13.4401C0.222222 13.529 0.337778 13.5734 0.48 13.5734H2.45333C2.59556 13.5734 2.71111 13.529 2.8 13.4401C2.88889 13.3512 2.93333 13.2356 2.93333 13.0934V11.5468H13.0667V13.0934C13.0667 13.2356 13.1111 13.3512 13.2 13.4401C13.2889 13.529 13.4044 13.5734 13.5467 13.5734H15.52C15.6622 13.5734 15.7778 13.529 15.8667 13.4401C15.9556 13.3512 16 13.2356 16 13.0934V7.06676C16 6.53343 15.8044 6.0712 15.4133 5.68009C15.0222 5.28898 14.56 5.09342 14.0267 5.09342ZM4 4.50676C4.28444 4.50676 4.52444 4.61343 4.72 4.82676C4.91556 5.04009 5.01333 5.28898 5.01333 5.57343C5.01333 5.85787 4.91556 6.09787 4.72 6.29343C4.52444 6.48898 4.28444 6.58676 4 6.58676C3.71556 6.58676 3.46667 6.48898 3.25333 6.29343C3.04 6.09787 2.93333 5.85787 2.93333 5.57343C2.93333 5.28898 3.04 5.04009 3.25333 4.82676C3.46667 4.61343 3.71556 4.50676 4 4.50676ZM2.93333 7.22676C3.25333 7.44009 3.6 7.54676 3.97333 7.54676C4.34667 7.54676 4.69333 7.44009 5.01333 7.22676V8.61343H2.93333V7.22676ZM15.04 12.6134H13.9733V11.0668C13.9733 10.9601 13.9289 10.8623 13.84 10.7734C13.7511 10.6845 13.6533 10.6401 13.5467 10.6401H2.45333C2.34667 10.6401 2.24889 10.6845 2.16 10.7734C2.07111 10.8623 2.02667 10.9601 2.02667 11.0668V12.6134H0.96V3.54676H2.02667V9.09343C2.02667 9.20009 2.07111 9.30676 2.16 9.41342C2.24889 9.52009 2.34667 9.57343 2.45333 9.57343H15.04V12.6134ZM15.04 8.61343H5.97333V7.06676C5.97333 6.78231 6.07111 6.54231 6.26667 6.34676C6.46222 6.1512 6.70222 6.05343 6.98667 6.05343H14.0267C14.3111 6.05343 14.5511 6.1512 14.7467 6.34676C14.9422 6.54231 15.04 6.78231 15.04 7.06676V8.61343Z" fill="#1A1A1A"/>
</g>
<defs>
<clipPath id="clip0_3_917">
<rect width="16" height="16" fill="white" transform="matrix(1 0 0 -1 0 16.0801)"/>
</clipPath>
</defs>
</svg>
