<svg width="16" height="17" viewBox="0 0 16 17" fill="none" xmlns="http://www.w3.org/2000/svg">
<g clip-path="url(#clip0_6_1312)">
<path d="M12.9067 2.3067C12.2311 1.6667 11.4755 1.16892 10.64 0.813362C9.80443 0.457807 8.92443 0.280029 7.99998 0.280029C7.07554 0.280029 6.18665 0.457807 5.33332 0.813362C4.47998 1.16892 3.73332 1.6667 3.09332 2.3067C2.45332 2.9467 1.95554 3.69336 1.59998 4.5467C1.24443 5.40003 1.06665 6.28892 1.06665 7.21336C1.06665 8.13781 1.24443 9.01781 1.59998 9.85336C1.95554 10.6889 2.45332 11.4445 3.09332 12.12L6.77332 15.8C7.09332 16.12 7.49332 16.28 7.97332 16.28C8.45332 16.28 8.8711 16.12 9.22665 15.8L12.9067 12.12C13.5467 11.4445 14.0444 10.6889 14.4 9.85336C14.7555 9.01781 14.9333 8.13781 14.9333 7.21336C14.9333 6.28892 14.7555 5.40003 14.4 4.5467C14.0444 3.69336 13.5467 2.9467 12.9067 2.3067ZM12.2133 11.4267L8.53332 15.1067C8.3911 15.2489 8.21332 15.32 7.99998 15.32C7.78665 15.32 7.59109 15.2489 7.41332 15.1067L3.73332 11.4267C3.16443 10.8578 2.73776 10.2089 2.45332 9.48003C2.16887 8.75114 2.02665 7.9867 2.02665 7.1867C2.02665 6.3867 2.16887 5.62225 2.45332 4.89336C2.73776 4.16447 3.16443 3.52447 3.73332 2.97336C4.30221 2.42225 4.95109 1.99558 5.67998 1.69336C6.40887 1.39114 7.17332 1.24003 7.97332 1.24003C8.77332 1.24003 9.53776 1.39114 10.2667 1.69336C10.9955 1.99558 11.6444 2.41336 12.2133 2.9467C12.9955 3.72892 13.52 4.63558 13.7867 5.6667C14.0533 6.69781 14.0533 7.72892 13.7867 8.76003C13.52 9.79114 12.9955 10.68 12.2133 11.4267ZM7.99998 4.7067C7.32443 4.7067 6.73776 4.95558 6.23998 5.45336C5.74221 5.95114 5.49332 6.53781 5.49332 7.21336C5.49332 7.88892 5.74221 8.4667 6.23998 8.9467C6.73776 9.4267 7.32443 9.6667 7.99998 9.6667C8.67554 9.6667 9.25332 9.4267 9.73332 8.9467C10.2133 8.4667 10.4533 7.88892 10.4533 7.21336C10.4533 6.53781 10.2133 5.95114 9.73332 5.45336C9.25332 4.95558 8.67554 4.7067 7.99998 4.7067ZM7.99998 8.76003C7.57332 8.76003 7.20887 8.60892 6.90665 8.3067C6.60443 8.00447 6.45332 7.64003 6.45332 7.21336C6.45332 6.7867 6.60443 6.42225 6.90665 6.12003C7.20887 5.81781 7.57332 5.6667 7.99998 5.6667C8.42665 5.6667 8.7911 5.81781 9.09332 6.12003C9.39554 6.42225 9.54665 6.7867 9.54665 7.21336C9.54665 7.64003 9.39554 8.00447 9.09332 8.3067C8.7911 8.60892 8.42665 8.76003 7.99998 8.76003Z" fill="#1A1A1A"/>
</g>
<defs>
<clipPath id="clip0_6_1312">
<rect width="16" height="16" fill="white" transform="matrix(1 0 0 -1 0 16.28)"/>
</clipPath>
</defs>
</svg>
