<svg width="17" height="17" viewBox="0 0 17 17" fill="none" xmlns="http://www.w3.org/2000/svg">
<g clip-path="url(#clip0_3_921)">
<path d="M16.1599 8.18676C16.1599 7.79564 16.0266 7.46675 15.7599 7.20009C15.4932 6.93342 15.1644 6.80009 14.7732 6.80009H2.66658V2.48009C2.66658 2.12453 2.79102 1.82231 3.03991 1.57342C3.21769 1.39564 3.42213 1.28898 3.65325 1.25342C3.88436 1.21787 4.12436 1.23564 4.37325 1.30676C4.05325 1.80453 3.9288 2.35564 3.99991 2.96009C4.07102 3.56453 4.31991 4.08009 4.74658 4.50675L4.85325 4.66675C4.95991 4.73787 5.07547 4.77342 5.19991 4.77342C5.32436 4.77342 5.42213 4.73787 5.49325 4.66675L8.53325 1.62675C8.63991 1.52009 8.69325 1.40453 8.69325 1.28009C8.69325 1.15564 8.63991 1.04009 8.53325 0.933422L8.42658 0.826755C7.96436 0.364532 7.40436 0.115644 6.74658 0.0800877C6.0888 0.0445328 5.51102 0.22231 5.01325 0.613421C4.58658 0.364532 4.12436 0.266755 3.62658 0.320088C3.1288 0.373422 2.70213 0.577867 2.34658 0.933422C1.91991 1.36009 1.70658 1.87564 1.70658 2.48009V6.80009H1.54658C1.15547 6.80009 0.826579 6.93342 0.559912 7.20009C0.293245 7.46675 0.159912 7.79564 0.159912 8.18676C0.159912 8.50676 0.248801 8.78231 0.426579 9.01342C0.604357 9.24453 0.81769 9.41342 1.06658 9.52009V10.5334C1.06658 11.3868 1.29769 12.169 1.75991 12.8801C2.22213 13.5912 2.8088 14.1423 3.51991 14.5334L3.09325 15.3868C3.02213 15.529 3.01325 15.6534 3.06658 15.7601C3.11991 15.8668 3.19991 15.9556 3.30658 16.0268C3.41325 16.0979 3.5288 16.1068 3.65325 16.0534C3.77769 16.0001 3.87547 15.9201 3.94658 15.8134L4.42658 14.8534C4.78213 14.9245 5.15547 14.9601 5.54658 14.9601H10.7732C11.1644 14.9601 11.5377 14.9245 11.8932 14.8534L12.3732 15.8134C12.4444 15.9201 12.5421 16.0001 12.6666 16.0534C12.791 16.1068 12.9066 16.0979 13.0132 16.0268C13.1199 15.9556 13.1999 15.8668 13.2532 15.7601C13.3066 15.6534 13.2977 15.529 13.2266 15.3868L12.7999 14.5334C13.511 14.1423 14.0977 13.5912 14.5599 12.8801C15.0221 12.169 15.2532 11.3868 15.2532 10.5334V9.52009C15.5021 9.41342 15.7155 9.24453 15.8932 9.01342C16.071 8.78231 16.1599 8.50676 16.1599 8.18676ZM7.51991 1.30676L5.22658 3.65342C4.97769 3.29787 4.87102 2.92453 4.90658 2.53342C4.94213 2.14231 5.10213 1.80453 5.38658 1.52009C5.67102 1.23564 6.01769 1.07564 6.42658 1.04009C6.83547 1.00453 7.19991 1.09342 7.51991 1.30676ZM1.54658 7.76009H14.7732C14.8799 7.76009 14.9777 7.80453 15.0666 7.89342C15.1555 7.98231 15.1999 8.08898 15.1999 8.21342C15.1999 8.33787 15.1555 8.44453 15.0666 8.53342C14.9777 8.62231 14.8799 8.66676 14.7732 8.66676H1.54658C1.43991 8.66676 1.34213 8.62231 1.25325 8.53342C1.16436 8.44453 1.11991 8.33787 1.11991 8.21342C1.11991 8.08898 1.16436 7.98231 1.25325 7.89342C1.34213 7.80453 1.43991 7.76009 1.54658 7.76009ZM14.2932 10.5334C14.2932 11.1734 14.1332 11.7601 13.8132 12.2934C13.4932 12.8268 13.0666 13.2534 12.5332 13.5734C11.9999 13.8934 11.4132 14.0534 10.7732 14.0534H5.54658C4.90658 14.0534 4.31991 13.8934 3.78658 13.5734C3.25325 13.2534 2.82658 12.8268 2.50658 12.2934C2.18658 11.7601 2.02658 11.1734 2.02658 10.5334V9.62675H14.2932V10.5334ZM6.93325 4.82676C6.93325 4.96898 6.97769 5.08453 7.06658 5.17342C7.15547 5.26231 7.26213 5.30676 7.38658 5.30676C7.51102 5.30676 7.61769 5.26231 7.70658 5.17342C7.79547 5.08453 7.83991 4.96898 7.83991 4.82676C7.83991 4.68453 7.79547 4.56898 7.70658 4.48009C7.61769 4.3912 7.51102 4.34676 7.38658 4.34676C7.26213 4.34676 7.15547 4.3912 7.06658 4.48009C6.97769 4.56898 6.93325 4.68453 6.93325 4.82676ZM8.26658 3.49342C8.26658 3.63564 8.31102 3.7512 8.39991 3.84009C8.4888 3.92898 8.59547 3.97342 8.71991 3.97342C8.84436 3.97342 8.95102 3.92898 9.03991 3.84009C9.1288 3.7512 9.17325 3.63564 9.17325 3.49342C9.17325 3.3512 9.1288 3.23564 9.03991 3.14676C8.95102 3.05787 8.84436 3.01342 8.71991 3.01342C8.59547 3.01342 8.4888 3.05787 8.39991 3.14676C8.31102 3.23564 8.26658 3.3512 8.26658 3.49342ZM8.58658 5.14676C8.58658 5.25342 8.63102 5.36009 8.71991 5.46675C8.8088 5.57342 8.91547 5.62675 9.03991 5.62675C9.16436 5.62675 9.27102 5.57342 9.35991 5.46675C9.4488 5.36009 9.49325 5.24453 9.49325 5.12009C9.49325 4.99564 9.4488 4.88898 9.35991 4.80009C9.27102 4.7112 9.16436 4.66675 9.03991 4.66675C8.91547 4.66675 8.8088 4.7112 8.71991 4.80009C8.63102 4.88898 8.58658 5.00453 8.58658 5.14676Z" fill="#1A1A1A"/>
</g>
<defs>
<clipPath id="clip0_3_921">
<rect width="16" height="16" fill="white" transform="matrix(1 0 0 -1 0.159912 16.0801)"/>
</clipPath>
</defs>
</svg>
