<svg width="17" height="17" viewBox="0 0 17 17" fill="none" xmlns="http://www.w3.org/2000/svg">
<g clip-path="url(#clip0_3_925)">
<path d="M13.0034 15.1201H11.0834C10.9767 15.1201 10.8701 15.1734 10.7634 15.2801C10.6567 15.3867 10.6034 15.5023 10.6034 15.6267C10.6034 15.7512 10.6567 15.8579 10.7634 15.9467C10.8701 16.0356 10.9767 16.0801 11.0834 16.0801H13.0034C13.1456 16.0801 13.2612 16.0356 13.3501 15.9467C13.4389 15.8579 13.4834 15.7512 13.4834 15.6267C13.4834 15.5023 13.4389 15.3867 13.3501 15.2801C13.2612 15.1734 13.1456 15.1201 13.0034 15.1201ZM9.21673 15.1201H7.35006C7.20784 15.1201 7.09228 15.1734 7.00339 15.2801C6.9145 15.3867 6.87006 15.5023 6.87006 15.6267C6.87006 15.7512 6.9145 15.8579 7.00339 15.9467C7.09228 16.0356 7.20784 16.0801 7.35006 16.0801H9.21673C9.35895 16.0801 9.4745 16.0356 9.56339 15.9467C9.65228 15.8579 9.69673 15.7512 9.69673 15.6267C9.69673 15.5023 9.65228 15.3867 9.56339 15.2801C9.4745 15.1734 9.35895 15.1201 9.21673 15.1201ZM15.8301 6.64008C15.7234 6.64008 15.6167 6.68452 15.5101 6.77341C15.4034 6.8623 15.3501 6.97786 15.3501 7.12008V8.98674C15.3501 9.12897 15.4034 9.24452 15.5101 9.33341C15.6167 9.4223 15.7323 9.46674 15.8567 9.46674C15.9812 9.46674 16.0878 9.4223 16.1767 9.33341C16.2656 9.24452 16.3101 9.12897 16.3101 8.98674V7.12008C16.3101 6.97786 16.2656 6.8623 16.1767 6.77341C16.0878 6.68452 15.9723 6.64008 15.8301 6.64008ZM15.8301 10.3734C15.7234 10.3734 15.6167 10.4267 15.5101 10.5334C15.4034 10.6401 15.3501 10.7467 15.3501 10.8534V12.7201C15.3501 12.8623 15.4034 12.9779 15.5101 13.0667C15.6167 13.1556 15.7323 13.2001 15.8567 13.2001C15.9812 13.2001 16.0878 13.1556 16.1767 13.0667C16.2656 12.9779 16.3101 12.8623 16.3101 12.7201V10.8534C16.3101 10.7467 16.2656 10.6401 16.1767 10.5334C16.0878 10.4267 15.9723 10.3734 15.8301 10.3734ZM5.48339 15.1201H5.00339V14.6934C5.00339 14.5512 4.95895 14.4356 4.87006 14.3467C4.78117 14.2579 4.66561 14.2134 4.52339 14.2134C4.38117 14.2134 4.26561 14.2579 4.17673 14.3467C4.08784 14.4356 4.04339 14.5512 4.04339 14.6934V15.6001C4.04339 15.7423 4.08784 15.8579 4.17673 15.9467C4.26561 16.0356 4.38117 16.0801 4.52339 16.0801H5.48339C5.59006 16.0801 5.68784 16.0356 5.77673 15.9467C5.86561 15.8579 5.91006 15.7512 5.91006 15.6267C5.91006 15.5023 5.86561 15.3867 5.77673 15.2801C5.68784 15.1734 5.59006 15.1201 5.48339 15.1201ZM15.8301 3.81341H14.9234C14.7812 3.81341 14.6656 3.85786 14.5767 3.94674C14.4878 4.03563 14.4434 4.15119 14.4434 4.29341C14.4434 4.43563 14.4878 4.55119 14.5767 4.64008C14.6656 4.72897 14.7812 4.77341 14.9234 4.77341H15.3501V5.25341C15.3501 5.36008 15.4034 5.45786 15.5101 5.54674C15.6167 5.63563 15.7323 5.68008 15.8567 5.68008C15.9812 5.68008 16.0878 5.63563 16.1767 5.54674C16.2656 5.45786 16.3101 5.36008 16.3101 5.25341V4.29341C16.3101 4.15119 16.2656 4.03563 16.1767 3.94674C16.0878 3.85786 15.9723 3.81341 15.8301 3.81341ZM15.8301 14.2134C15.7234 14.2134 15.6167 14.2579 15.5101 14.3467C15.4034 14.4356 15.3501 14.5512 15.3501 14.6934V15.1201H14.9234C14.7812 15.1201 14.6656 15.1734 14.5767 15.2801C14.4878 15.3867 14.4434 15.5023 14.4434 15.6267C14.4434 15.7512 14.4878 15.8579 14.5767 15.9467C14.6656 16.0356 14.7812 16.0801 14.9234 16.0801H15.8301C15.9723 16.0801 16.0878 16.0356 16.1767 15.9467C16.2656 15.8579 16.3101 15.7423 16.3101 15.6001V14.6934C16.3101 14.5512 16.2656 14.4356 16.1767 14.3467C16.0878 14.2579 15.9723 14.2134 15.8301 14.2134ZM13.0034 3.81341H12.5234V0.560078C12.5234 0.417855 12.4701 0.302299 12.3634 0.213411C12.2567 0.124522 12.1501 0.0800781 12.0434 0.0800781H0.790059C0.647836 0.0800781 0.532281 0.124522 0.443392 0.213411C0.354503 0.302299 0.310059 0.417855 0.310059 0.560078V11.8134C0.310059 11.9201 0.354503 12.0267 0.443392 12.1334C0.532281 12.2401 0.647836 12.2934 0.790059 12.2934H4.04339V12.7201C4.04339 12.8623 4.08784 12.9779 4.17673 13.0667C4.26561 13.1556 4.38117 13.2001 4.52339 13.2001C4.66561 13.2001 4.78117 13.1556 4.87006 13.0667C4.95895 12.9779 5.00339 12.8623 5.00339 12.7201V4.77341H13.0034C13.1456 4.77341 13.2612 4.72897 13.3501 4.64008C13.4389 4.55119 13.4834 4.43563 13.4834 4.29341C13.4834 4.15119 13.4389 4.03563 13.3501 3.94674C13.2612 3.85786 13.1456 3.81341 13.0034 3.81341ZM11.5634 3.81341H4.52339C4.38117 3.81341 4.26561 3.85786 4.17673 3.94674C4.08784 4.03563 4.04339 4.15119 4.04339 4.29341V11.3334H1.27006V1.04008H11.5634V3.81341Z" fill="#1A1A1A"/>
</g>
<defs>
<clipPath id="clip0_3_925">
<rect width="16" height="16" fill="white" transform="matrix(1 0 0 -1 0.310059 16.0801)"/>
</clipPath>
</defs>
</svg>
